<svg width="1920" height="1000" viewBox="0 0 1920 1000" fill="none" xmlns="http://www.w3.org/2000/svg">
<rect width="1920" height="1000" fill="white"/>
<path d="M200.203 487.383L248.25 591.289L267.977 594.805V620H220.516L163.484 491.875L103.133 493.047V589.922L134.969 595.391V620H32.8203V595.391L64.6562 589.922V365.898L32.8203 360.43V335.82H159.578C180.151 335.82 197.664 338.88 212.117 345C241.154 357.76 255.672 381.068 255.672 414.922C255.672 431.719 252.091 445.716 244.93 456.914C235.424 471.888 220.516 482.044 200.203 487.383ZM103.133 365.898V462.773H155.672C177.156 462.773 192.781 458.672 202.547 450.469C212.312 442.266 217.195 430.286 217.195 414.531C217.195 399.557 212.508 387.708 203.133 378.984C193.758 370.26 179.24 365.898 159.578 365.898H103.133ZM398.445 624.102C378.914 624.102 361.922 619.609 347.469 610.625C333.016 601.771 321.818 589.401 313.875 573.516C306.062 557.63 302.156 539.271 302.156 518.438V509.844C302.156 489.661 306.323 471.693 314.656 455.938C322.859 440.052 333.797 427.552 347.469 418.438C361.271 409.323 376.31 404.766 392.586 404.766C411.596 404.766 427.547 408.672 440.438 416.484C453.198 424.297 462.833 435.299 469.344 449.492C475.854 463.555 479.109 480.156 479.109 499.297V523.32H342L341.414 524.297C341.544 537.578 343.953 549.557 348.641 560.234C353.198 570.781 359.643 579.049 367.977 585.039C376.44 591.029 386.596 594.023 398.445 594.023C411.466 594.023 422.859 592.201 432.625 588.555C442.521 584.779 451.049 579.635 458.211 573.125L473.25 598.125C465.698 605.417 455.672 611.602 443.172 616.68C430.802 621.628 415.893 624.102 398.445 624.102ZM342.781 492.266L343.172 493.242H440.633V488.164C440.633 477.878 438.875 468.763 435.359 460.82C431.714 452.747 426.31 446.432 419.148 441.875C412.117 437.318 403.263 435.039 392.586 435.039C384.122 435.039 376.31 437.513 369.148 442.461C354.565 453.008 345.776 469.609 342.781 492.266ZM594.734 624.102C580.542 624.102 567.26 622.669 554.891 619.805C542.521 616.94 529.37 612.513 515.438 606.523L515.047 556.328H544.148L551.375 586.602C565.177 592.331 579.63 595.195 594.734 595.195C610.359 595.195 621.557 592.201 628.328 586.211C635.099 580.221 638.484 572.799 638.484 563.945C638.484 555.612 635.034 548.581 628.133 542.852C621.362 536.992 608.992 532.044 591.023 528.008C565.503 522.148 546.688 514.336 534.578 504.57C522.599 494.674 516.609 481.523 516.609 465.117C516.609 453.659 519.93 443.372 526.57 434.258C533.211 425.273 542.456 418.112 554.305 412.773C566.154 407.435 579.956 404.766 595.711 404.766C611.727 404.766 625.398 406.589 636.727 410.234C648.185 413.88 658.146 418.763 666.609 424.883L668.562 473.125H639.656L633.406 445C623.901 437.969 611.336 434.453 595.711 434.453C583.732 434.453 573.966 437.253 566.414 442.852C558.992 448.451 555.281 455.482 555.281 463.945C555.281 468.763 556.388 473.06 558.602 476.836C560.945 480.872 565.633 484.388 572.664 487.383C579.695 490.378 588.094 493.047 597.859 495.391C627.286 502.292 647.794 511.081 659.383 521.758C671.102 532.435 676.961 545.586 676.961 561.211C676.961 579.049 670.32 594.023 657.039 606.133C643.888 618.112 623.12 624.102 594.734 624.102ZM804.305 624.102C785.294 624.102 768.628 619.609 754.305 610.625C740.112 601.771 729.109 589.401 721.297 573.516C713.484 557.63 709.578 539.271 709.578 518.438V510.234C709.578 489.922 713.354 471.953 720.906 456.328C728.458 440.443 739.331 427.878 753.523 418.633C767.716 409.388 784.643 404.766 804.305 404.766C821.362 404.766 836.271 407.565 849.031 413.164C861.922 418.763 872.729 426.445 881.453 436.211L882.43 486.992H852.352L845.711 450.078C841.284 445.521 835.75 441.875 829.109 439.141C822.469 436.406 814.656 435.039 805.672 435.039C794.083 435.039 784.057 438.424 775.594 445.195C766.87 451.966 760.099 461.016 755.281 472.344C750.464 483.672 748.055 496.302 748.055 510.234V518.438C748.055 533.672 750.333 547.018 754.891 558.477C759.448 569.805 765.893 578.594 774.227 584.844C782.56 590.964 792.521 594.023 804.109 594.023C817.13 594.023 827.938 590.443 836.531 583.281C845.125 576.12 850.398 566.289 852.352 553.789H886.922L887.312 554.961C886.792 566.81 883.211 578.138 876.57 588.945C870.06 599.492 860.75 608.021 848.641 614.531C836.661 620.911 821.883 624.102 804.305 624.102ZM987.312 589.922L1019.15 595.391V620H917V595.391L948.836 589.922V438.945L917 433.477V408.672H983.211L986.531 435.625L986.922 439.336C992.911 428.529 1000.27 420.065 1008.99 413.945C1017.85 407.826 1027.94 404.766 1039.27 404.766C1043.3 404.766 1047.4 405.156 1051.57 405.938C1055.87 406.589 1058.93 407.24 1060.75 407.891L1055.67 443.633L1028.91 442.07C1018.76 441.419 1010.23 443.763 1003.33 449.102C996.427 454.31 991.089 461.341 987.312 470.195V589.922ZM1112.7 356.523V315.312H1153.13V356.523H1112.7ZM1153.13 408.672V589.922L1184.97 595.391V620H1082.82V595.391L1114.66 589.922V438.945L1082.82 433.477V408.672H1153.13ZM1323.84 624.102C1296.62 624.102 1276.18 613.685 1262.51 592.852L1258.99 620H1225.79V345.586L1193.95 340.117V315.312H1264.27V433.672C1270.91 424.297 1279.11 417.135 1288.88 412.188C1298.77 407.24 1310.29 404.766 1323.45 404.766C1341.02 404.766 1355.93 409.453 1368.17 418.828C1380.54 428.333 1389.98 441.615 1396.49 458.672C1403 475.729 1406.26 495.586 1406.26 518.242V522.344C1406.26 542.526 1403 560.299 1396.49 575.664C1389.85 590.898 1380.35 602.812 1367.98 611.406C1355.74 619.87 1341.02 624.102 1323.84 624.102ZM1314.07 592.852C1332.17 592.852 1345.58 586.406 1354.3 573.516C1363.16 560.625 1367.59 543.568 1367.59 522.344V518.242C1367.59 501.836 1365.63 487.513 1361.73 475.273C1357.82 462.904 1351.9 453.268 1343.95 446.367C1336.01 439.466 1325.92 436.016 1313.68 436.016C1301.83 436.016 1291.8 438.88 1283.6 444.609C1275.53 450.339 1269.08 458.021 1264.27 467.656V561.016C1269.08 570.781 1275.59 578.529 1283.8 584.258C1292.13 589.987 1302.22 592.852 1314.07 592.852ZM1531.65 624.102C1512.12 624.102 1495.12 619.609 1480.67 610.625C1466.22 601.771 1455.02 589.401 1447.08 573.516C1439.27 557.63 1435.36 539.271 1435.36 518.438V509.844C1435.36 489.661 1439.53 471.693 1447.86 455.938C1456.06 440.052 1467 427.552 1480.67 418.438C1494.47 409.323 1509.51 404.766 1525.79 404.766C1544.8 404.766 1560.75 408.672 1573.64 416.484C1586.4 424.297 1596.04 435.299 1602.55 449.492C1609.06 463.555 1612.31 480.156 1612.31 499.297V523.32H1475.2L1474.62 524.297C1474.75 537.578 1477.16 549.557 1481.84 560.234C1486.4 570.781 1492.85 579.049 1501.18 585.039C1509.64 591.029 1519.8 594.023 1531.65 594.023C1544.67 594.023 1556.06 592.201 1565.83 588.555C1575.72 584.779 1584.25 579.635 1591.41 573.125L1606.45 598.125C1598.9 605.417 1588.88 611.602 1576.38 616.68C1564.01 621.628 1549.1 624.102 1531.65 624.102ZM1475.98 492.266L1476.38 493.242H1573.84V488.164C1573.84 477.878 1572.08 468.763 1568.56 460.82C1564.92 452.747 1559.51 446.432 1552.35 441.875C1545.32 437.318 1536.47 435.039 1525.79 435.039C1517.33 435.039 1509.51 437.513 1502.35 442.461C1487.77 453.008 1478.98 469.609 1475.98 492.266ZM1784.19 364.727V589.922L1816.02 595.391V620H1713.88V595.391L1745.71 589.922V364.727H1681.26L1675.59 404.18H1646.69V335.625H1883.02V404.18H1854.5L1848.64 364.727H1784.19Z" fill="#248D83"/>
<path d="M1784.25 364.727V589.922L1816.09 595.391V620H1713.94V595.391L1745.77 589.922V364.727H1681.32L1675.66 404.18H1646.75V335.625H1883.08V404.18H1854.56L1848.7 364.727H1784.25Z" fill="#236F68"/>
</svg>
