<svg width="1890" height="753" viewBox="0 0 1890 753" fill="none" xmlns="http://www.w3.org/2000/svg">
  <rect width="1890" height="753" fill="none" />
  <path
    d="M187.203 372.383L235.25 476.289L254.977 479.805V505H207.516L150.484 376.875L90.1328 378.047V474.922L121.969 480.391V505H19.8203V480.391L51.6562 474.922V250.898L19.8203 245.43V220.82H146.578C167.151 220.82 184.664 223.88 199.117 230C228.154 242.76 242.672 266.068 242.672 299.922C242.672 316.719 239.091 330.716 231.93 341.914C222.424 356.888 207.516 367.044 187.203 372.383ZM90.1328 250.898V347.773H142.672C164.156 347.773 179.781 343.672 189.547 335.469C199.312 327.266 204.195 315.286 204.195 299.531C204.195 284.557 199.508 272.708 190.133 263.984C180.758 255.26 166.24 250.898 146.578 250.898H90.1328ZM385.445 509.102C365.914 509.102 348.922 504.609 334.469 495.625C320.016 486.771 308.818 474.401 300.875 458.516C293.062 442.63 289.156 424.271 289.156 403.438V394.844C289.156 374.661 293.323 356.693 301.656 340.938C309.859 325.052 320.797 312.552 334.469 303.438C348.271 294.323 363.31 289.766 379.586 289.766C398.596 289.766 414.547 293.672 427.438 301.484C440.198 309.297 449.833 320.299 456.344 334.492C462.854 348.555 466.109 365.156 466.109 384.297V408.32H329L328.414 409.297C328.544 422.578 330.953 434.557 335.641 445.234C340.198 455.781 346.643 464.049 354.977 470.039C363.44 476.029 373.596 479.023 385.445 479.023C398.466 479.023 409.859 477.201 419.625 473.555C429.521 469.779 438.049 464.635 445.211 458.125L460.25 483.125C452.698 490.417 442.672 496.602 430.172 501.68C417.802 506.628 402.893 509.102 385.445 509.102ZM329.781 377.266L330.172 378.242H427.633V373.164C427.633 362.878 425.875 353.763 422.359 345.82C418.714 337.747 413.31 331.432 406.148 326.875C399.117 322.318 390.263 320.039 379.586 320.039C371.122 320.039 363.31 322.513 356.148 327.461C341.565 338.008 332.776 354.609 329.781 377.266ZM581.734 509.102C567.542 509.102 554.26 507.669 541.891 504.805C529.521 501.94 516.37 497.513 502.438 491.523L502.047 441.328H531.148L538.375 471.602C552.177 477.331 566.63 480.195 581.734 480.195C597.359 480.195 608.557 477.201 615.328 471.211C622.099 465.221 625.484 457.799 625.484 448.945C625.484 440.612 622.034 433.581 615.133 427.852C608.362 421.992 595.992 417.044 578.023 413.008C552.503 407.148 533.688 399.336 521.578 389.57C509.599 379.674 503.609 366.523 503.609 350.117C503.609 338.659 506.93 328.372 513.57 319.258C520.211 310.273 529.456 303.112 541.305 297.773C553.154 292.435 566.956 289.766 582.711 289.766C598.727 289.766 612.398 291.589 623.727 295.234C635.185 298.88 645.146 303.763 653.609 309.883L655.562 358.125H626.656L620.406 330C610.901 322.969 598.336 319.453 582.711 319.453C570.732 319.453 560.966 322.253 553.414 327.852C545.992 333.451 542.281 340.482 542.281 348.945C542.281 353.763 543.388 358.06 545.602 361.836C547.945 365.872 552.633 369.388 559.664 372.383C566.695 375.378 575.094 378.047 584.859 380.391C614.286 387.292 634.794 396.081 646.383 406.758C658.102 417.435 663.961 430.586 663.961 446.211C663.961 464.049 657.32 479.023 644.039 491.133C630.888 503.112 610.12 509.102 581.734 509.102ZM791.305 509.102C772.294 509.102 755.628 504.609 741.305 495.625C727.112 486.771 716.109 474.401 708.297 458.516C700.484 442.63 696.578 424.271 696.578 403.438V395.234C696.578 374.922 700.354 356.953 707.906 341.328C715.458 325.443 726.331 312.878 740.523 303.633C754.716 294.388 771.643 289.766 791.305 289.766C808.362 289.766 823.271 292.565 836.031 298.164C848.922 303.763 859.729 311.445 868.453 321.211L869.43 371.992H839.352L832.711 335.078C828.284 330.521 822.75 326.875 816.109 324.141C809.469 321.406 801.656 320.039 792.672 320.039C781.083 320.039 771.057 323.424 762.594 330.195C753.87 336.966 747.099 346.016 742.281 357.344C737.464 368.672 735.055 381.302 735.055 395.234V403.438C735.055 418.672 737.333 432.018 741.891 443.477C746.448 454.805 752.893 463.594 761.227 469.844C769.56 475.964 779.521 479.023 791.109 479.023C804.13 479.023 814.938 475.443 823.531 468.281C832.125 461.12 837.398 451.289 839.352 438.789H873.922L874.312 439.961C873.792 451.81 870.211 463.138 863.57 473.945C857.06 484.492 847.75 493.021 835.641 499.531C823.661 505.911 808.883 509.102 791.305 509.102ZM974.312 474.922L1006.15 480.391V505H904V480.391L935.836 474.922V323.945L904 318.477V293.672H970.211L973.531 320.625L973.922 324.336C979.911 313.529 987.268 305.065 995.992 298.945C1004.85 292.826 1014.94 289.766 1026.27 289.766C1030.3 289.766 1034.4 290.156 1038.57 290.938C1042.87 291.589 1045.93 292.24 1047.75 292.891L1042.67 328.633L1015.91 327.07C1005.76 326.419 997.229 328.763 990.328 334.102C983.427 339.31 978.089 346.341 974.312 355.195V474.922ZM1099.7 241.523V200.312H1140.13V241.523H1099.7ZM1140.13 293.672V474.922L1171.97 480.391V505H1069.82V480.391L1101.66 474.922V323.945L1069.82 318.477V293.672H1140.13ZM1310.84 509.102C1283.62 509.102 1263.18 498.685 1249.51 477.852L1245.99 505H1212.79V230.586L1180.95 225.117V200.312H1251.27V318.672C1257.91 309.297 1266.11 302.135 1275.88 297.188C1285.77 292.24 1297.29 289.766 1310.45 289.766C1328.02 289.766 1342.93 294.453 1355.17 303.828C1367.54 313.333 1376.98 326.615 1383.49 343.672C1390 360.729 1393.26 380.586 1393.26 403.242V407.344C1393.26 427.526 1390 445.299 1383.49 460.664C1376.85 475.898 1367.35 487.812 1354.98 496.406C1342.74 504.87 1328.02 509.102 1310.84 509.102ZM1301.07 477.852C1319.17 477.852 1332.58 471.406 1341.3 458.516C1350.16 445.625 1354.59 428.568 1354.59 407.344V403.242C1354.59 386.836 1352.63 372.513 1348.73 360.273C1344.82 347.904 1338.9 338.268 1330.95 331.367C1323.01 324.466 1312.92 321.016 1300.68 321.016C1288.83 321.016 1278.8 323.88 1270.6 329.609C1262.53 335.339 1256.08 343.021 1251.27 352.656V446.016C1256.08 455.781 1262.59 463.529 1270.8 469.258C1279.13 474.987 1289.22 477.852 1301.07 477.852ZM1518.65 509.102C1499.12 509.102 1482.12 504.609 1467.67 495.625C1453.22 486.771 1442.02 474.401 1434.08 458.516C1426.27 442.63 1422.36 424.271 1422.36 403.438V394.844C1422.36 374.661 1426.53 356.693 1434.86 340.938C1443.06 325.052 1454 312.552 1467.67 303.438C1481.47 294.323 1496.51 289.766 1512.79 289.766C1531.8 289.766 1547.75 293.672 1560.64 301.484C1573.4 309.297 1583.04 320.299 1589.55 334.492C1596.06 348.555 1599.31 365.156 1599.31 384.297V408.32H1462.2L1461.62 409.297C1461.75 422.578 1464.16 434.557 1468.84 445.234C1473.4 455.781 1479.85 464.049 1488.18 470.039C1496.64 476.029 1506.8 479.023 1518.65 479.023C1531.67 479.023 1543.06 477.201 1552.83 473.555C1562.72 469.779 1571.25 464.635 1578.41 458.125L1593.45 483.125C1585.9 490.417 1575.88 496.602 1563.38 501.68C1551.01 506.628 1536.1 509.102 1518.65 509.102ZM1462.98 377.266L1463.38 378.242H1560.84V373.164C1560.84 362.878 1559.08 353.763 1555.56 345.82C1551.92 337.747 1546.51 331.432 1539.35 326.875C1532.32 322.318 1523.47 320.039 1512.79 320.039C1504.33 320.039 1496.51 322.513 1489.35 327.461C1474.77 338.008 1465.98 354.609 1462.98 377.266ZM1771.19 249.727V474.922L1803.02 480.391V505H1700.88V480.391L1732.71 474.922V249.727H1668.26L1662.59 289.18H1633.69V220.625H1870.02V289.18H1841.5L1835.64 249.727H1771.19Z"
    fill="#248D83" />
  <path
    d="M1771.25 249.727V474.922L1803.09 480.391V505H1700.94V480.391L1732.77 474.922V249.727H1668.32L1662.66 289.18H1633.75V220.625H1870.08V289.18H1841.56L1835.7 249.727H1771.25Z"
    fill="#236F68" />
</svg>