<svg width="512" height="512" viewBox="0 0 512 512" fill="none" xmlns="http://www.w3.org/2000/svg">
<rect width="512" height="512" fill="#1E1E1E"/>
<rect width="512" height="512" fill="white"/>
<path d="M234.61 77.0508V433.404L284.994 442.058V481H123.332V442.058L173.716 433.404V77.0508H71.7115L62.7475 139.482H17V31H324.447L384.562 39.5055L392.45 91.7253L352.119 78.9052L336.614 77.0508H234.61Z" fill="#236F68"/>
<path d="M388.741 271.144L464.78 435.567L496 441.131V481H420.888L330.629 278.253L235.116 280.107V433.404L285.5 442.058V481H123.838V442.058L174.222 433.404V78.9052L123.838 70.2514V31.3091H324.447C357.006 31.3091 384.722 36.1511 407.596 45.8352C453.55 66.0275 476.526 102.909 476.526 156.481C476.526 183.06 470.859 205.21 459.526 222.93C444.483 246.625 420.888 262.696 388.741 271.144ZM235.116 78.9052V232.202H318.265C352.266 232.202 376.995 225.712 392.45 212.731C407.905 199.75 415.633 180.794 415.633 155.863C415.633 132.168 408.214 113.418 393.377 99.6126C378.54 85.8077 355.563 78.9052 324.447 78.9052H235.116Z" fill="#248D83"/>
</svg>
